<?xml version="1.0" standalone="no"?>
<!DOCTYPE svg PUBLIC "-//W3C//DTD SVG 20010904//EN"
 "http://www.w3.org/TR/2001/REC-SVG-20010904/DTD/svg10.dtd">
<svg version="1.0" xmlns="http://www.w3.org/2000/svg"
 width="539.000000pt" height="463.000000pt" viewBox="0 0 539.000000 463.000000"
 preserveAspectRatio="xMidYMid meet">

<g transform="translate(0.000000,463.000000) scale(0.100000,-0.100000)"
fill="#000000" stroke="none">
<path d="M2588 4483 c-57 -76 -106 -141 -109 -145 -3 -5 -57 -22 -120 -38
-264 -67 -455 -176 -649 -370 -200 -199 -336 -447 -381 -692 l-12 -67 -149
-111 c-81 -61 -148 -113 -148 -114 0 -2 68 -55 150 -117 111 -83 150 -119 150
-134 0 -47 64 -246 109 -341 180 -377 508 -653 903 -759 51 -14 102 -25 114
-25 14 0 52 -42 133 -150 63 -82 115 -150 116 -150 1 0 52 66 114 148 l111
147 67 13 c153 29 336 108 503 217 104 68 282 248 360 364 103 154 183 342
212 496 l11 63 149 113 c82 62 145 116 141 120 -4 4 -71 55 -148 113 l-139
106 -22 98 c-113 501 -511 902 -1023 1032 -63 16 -117 33 -120 38 -40 55 -213
282 -216 282 -2 0 -50 -62 -107 -137z m-18 -525 c29 -106 70 -250 89 -320 l36
-128 89 320 89 320 36 -6 c152 -25 372 -121 510 -224 241 -178 418 -457 469
-738 9 -50 8 -54 -12 -63 -11 -5 -151 -45 -311 -89 -159 -45 -290 -82 -292
-84 -2 -1 138 -43 311 -92 l315 -89 -6 -30 c-3 -16 -14 -64 -25 -105 -119
-453 -501 -803 -964 -883 l-31 -6 -25 92 c-15 51 -54 193 -89 316 -45 161 -65
219 -70 205 -5 -10 -45 -152 -90 -314 -45 -162 -83 -297 -84 -298 -7 -8 -204
47 -284 79 -357 141 -646 488 -725 870 -8 40 -14 74 -13 75 1 1 85 25 187 53
403 113 442 125 422 132 -11 4 -152 44 -314 89 -161 45 -294 83 -296 85 -5 5
28 137 53 216 99 297 338 565 630 704 86 41 256 94 330 104 6 0 35 -86 65
-191z"/>
<path d="M120 988 c-101 -29 -123 -80 -118 -275 3 -130 5 -142 28 -176 47 -70
58 -72 403 -75 l307 -3 0 161 0 160 -85 0 -85 0 0 -95 0 -95 -174 0 c-217 0
-219 1 -224 114 -5 89 1 119 28 146 19 19 34 20 280 20 l260 0 0 65 0 65 -292
-1 c-161 0 -309 -5 -328 -11z"/>
<path d="M1400 795 l0 -205 -174 0 c-236 0 -220 -16 -224 219 l-3 181 -85 0
-85 0 3 -212 c3 -202 4 -215 25 -244 47 -66 64 -69 406 -72 l307 -3 0 271 0
270 -85 0 -85 0 0 -205z"/>
<path d="M1660 730 l0 -270 80 0 80 0 2 177 3 177 122 -134 c117 -128 123
-137 123 -177 l0 -43 80 0 80 0 0 270 0 270 -80 0 -80 0 0 -120 c0 -66 -4
-120 -8 -120 -5 0 -57 54 -116 120 l-107 120 -89 0 -90 0 0 -270z"/>
<path d="M2320 730 l0 -271 83 3 82 3 3 108 3 107 214 0 215 0 0 55 0 55 -215
0 -215 0 0 40 0 40 213 2 212 3 3 63 3 62 -301 0 -300 0 0 -270z"/>
<path d="M3010 730 l0 -270 85 0 85 0 0 270 0 270 -85 0 -85 0 0 -270z"/>
<path d="M3376 985 c-22 -8 -53 -28 -70 -45 l-31 -30 -3 -168 c-3 -161 -2
-168 20 -202 13 -18 39 -43 58 -54 33 -20 53 -21 348 -24 l312 -3 0 160 0 161
-85 0 -85 0 0 -95 0 -95 -178 0 -179 0 -24 26 c-22 23 -24 34 -24 116 0 86 1
91 28 114 l28 24 255 0 254 0 0 65 0 65 -292 0 c-225 -1 -302 -4 -332 -15z"/>
<path d="M4100 730 l0 -270 80 0 80 0 0 105 0 105 110 0 110 0 0 -105 0 -105
80 0 80 0 0 270 0 270 -80 0 -80 0 0 -105 0 -105 -110 0 -110 0 0 105 0 105
-80 0 -80 0 0 -270z"/>
<path d="M4740 935 l0 -65 115 0 115 0 0 -205 0 -205 80 0 80 0 0 205 0 205
120 0 120 0 0 65 0 65 -315 0 -315 0 0 -65z"/>
<path d="M2841 118 c-1 -51 3 -100 9 -108 7 -10 10 18 10 93 0 59 -4 107 -9
107 -5 0 -9 -42 -10 -92z"/>
<path d="M25 191 c30 -6 30 -6 35 -91 l6 -85 4 85 5 85 30 6 c19 4 5 7 -40 7
-45 0 -59 -3 -40 -7z"/>
<path d="M202 108 c1 -51 3 -74 5 -50 4 38 7 42 31 42 21 0 32 -9 50 -40 12
-22 27 -40 32 -40 6 0 -1 18 -15 40 -24 39 -25 40 -5 50 13 7 20 21 20 41 0
34 -27 49 -86 49 l-34 0 2 -92z m89 72 c44 -24 8 -75 -49 -68 -28 3 -40 32
-28 64 6 16 49 19 77 4z"/>
<path d="M435 158 c-48 -120 -54 -138 -46 -138 6 0 13 9 16 20 9 30 90 29 105
-1 7 -11 14 -19 17 -16 5 5 -54 156 -67 170 -4 5 -15 -11 -25 -35z m35 -13 c5
-14 13 -37 16 -50 6 -23 3 -25 -30 -25 -20 0 -36 4 -36 10 0 13 31 90 36 90 3
0 9 -11 14 -25z"/>
<path d="M604 110 c0 -52 1 -74 3 -47 2 26 2 68 0 95 -2 26 -3 4 -3 -48z"/>
<path d="M700 110 c0 -107 18 -122 22 -19 l3 72 49 -72 c27 -39 53 -71 58 -71
4 0 8 40 8 90 0 107 -18 122 -22 19 l-3 -72 -49 72 c-27 39 -53 71 -58 71 -4
0 -8 -40 -8 -90z"/>
<path d="M934 110 c0 -52 1 -74 3 -47 2 26 2 68 0 95 -2 26 -3 4 -3 -48z"/>
<path d="M1030 110 c0 -50 4 -90 8 -90 5 0 7 32 7 70 -1 39 1 70 4 70 4 0 29
-31 56 -70 28 -38 53 -70 58 -70 4 0 7 41 7 92 0 104 -17 112 -22 10 l-3 -63
-50 70 c-27 39 -53 71 -57 71 -5 0 -8 -40 -8 -90z"/>
<path d="M1270 180 c-15 -15 -20 -33 -20 -70 0 -57 24 -90 65 -90 32 0 65 33
65 65 0 22 -4 25 -32 24 -30 -1 -30 -2 -9 -8 33 -9 37 -25 12 -50 -26 -26 -46
-26 -71 -1 -40 40 -15 140 35 140 8 0 24 -9 36 -21 11 -11 23 -18 26 -16 2 3
-5 15 -16 26 -26 26 -65 27 -91 1z"/>
<path d="M1572 184 c-20 -14 -23 -23 -20 -77 3 -55 6 -63 30 -76 32 -19 81 -6
86 23 3 16 2 16 -17 -3 -12 -12 -30 -21 -40 -21 -48 0 -70 101 -31 140 26 26
44 25 70 -2 11 -12 20 -17 20 -10 0 14 -40 42 -60 42 -9 0 -26 -7 -38 -16z"/>
<path d="M1760 110 l0 -90 58 2 57 2 -52 3 c-53 4 -53 4 -53 39 0 33 1 34 40
34 22 0 40 5 40 10 0 6 -18 10 -41 10 -39 0 -40 1 -37 33 3 30 5 32 53 38 l50
6 -57 1 -58 2 0 -90z"/>
<path d="M1952 108 l2 -93 5 75 6 75 35 -49 c19 -27 45 -61 57 -75 l22 -26 -1
95 c-2 88 -2 89 -5 23 -2 -40 -7 -73 -11 -73 -4 0 -27 30 -52 66 -24 36 -48
68 -52 70 -4 3 -7 -37 -6 -88z"/>
<path d="M2175 191 c30 -6 30 -6 35 -91 l6 -85 4 85 5 85 30 6 c19 4 5 7 -40
7 -45 0 -59 -3 -40 -7z"/>
<path d="M2350 110 l0 -90 58 2 57 1 -50 6 c-48 6 -50 8 -53 39 -3 32 -3 32
42 32 25 0 46 5 46 10 0 6 -21 10 -46 10 -45 0 -45 0 -42 33 3 30 5 32 53 38
l50 6 -57 1 -58 2 0 -90z"/>
<path d="M2542 108 c1 -51 3 -74 5 -50 4 38 7 42 31 42 21 0 32 -9 50 -41 13
-22 26 -38 29 -35 3 3 -4 21 -16 40 l-22 35 21 11 c13 7 20 21 20 41 0 34 -27
49 -86 49 l-34 0 2 -92z m89 72 c44 -24 8 -75 -49 -68 -28 3 -40 32 -28 64 6
16 49 19 77 4z"/>
<path d="M3058 189 c-21 -12 -24 -52 -5 -68 8 -6 28 -14 46 -17 40 -8 57 -36
35 -58 -18 -18 -47 -20 -75 -6 -13 7 -19 7 -19 1 0 -16 50 -25 78 -15 60 22
53 71 -13 90 -51 14 -67 40 -40 60 13 10 31 13 50 10 22 -4 26 -3 15 4 -19 12
-50 12 -72 -1z"/>
<path d="M3243 110 c0 -52 2 -76 4 -52 l4 42 49 0 49 0 4 -43 c2 -23 4 1 4 53
0 52 -2 76 -4 53 l-4 -43 -49 0 -49 0 -4 43 c-2 23 -4 -1 -4 -53z"/>
<path d="M3469 181 c-19 -15 -23 -28 -23 -71 0 -43 4 -56 23 -71 28 -23 50
-24 79 -3 18 13 22 25 22 74 0 49 -4 61 -22 74 -29 21 -51 20 -79 -3z m69 -7
c17 -12 22 -25 22 -61 0 -71 -45 -107 -84 -67 -22 21 -21 102 1 126 20 22 32
23 61 2z"/>
<path d="M3672 184 c-20 -14 -23 -23 -20 -77 3 -55 6 -63 30 -76 61 -34 111
24 94 111 -10 52 -61 73 -104 42z m69 -4 c15 -9 19 -22 19 -70 0 -48 -4 -61
-19 -70 -28 -14 -38 -13 -61 10 -13 13 -20 33 -20 60 0 27 7 47 20 60 23 23
33 24 61 10z"/>
<path d="M3865 191 c30 -6 30 -6 35 -91 l6 -85 4 85 5 85 30 6 c19 4 5 7 -40
7 -45 0 -59 -3 -40 -7z"/>
<path d="M4044 110 c0 -52 1 -74 3 -47 2 26 2 68 0 95 -2 26 -3 4 -3 -48z"/>
<path d="M4142 108 c2 -89 2 -90 5 -20 2 39 7 72 11 72 4 0 27 -30 52 -66 24
-36 48 -68 52 -70 4 -3 7 37 6 88 l-2 93 -5 -75 -6 -75 -48 67 c-26 37 -52 70
-57 73 -6 4 -9 -28 -8 -87z"/>
<path d="M4382 184 c-18 -13 -22 -25 -22 -74 0 -49 4 -61 22 -74 33 -23 64
-19 87 10 32 41 28 64 -11 63 -25 -1 -27 -3 -10 -6 35 -7 27 -54 -12 -68 -24
-8 -31 -6 -47 14 -26 32 -25 95 1 121 26 26 44 25 70 -2 11 -12 20 -17 20 -10
0 14 -40 42 -60 42 -9 0 -26 -7 -38 -16z"/>
<path d="M4682 184 c-18 -13 -22 -25 -22 -74 0 -49 4 -61 22 -74 12 -9 32 -16
44 -16 20 0 54 28 54 45 0 5 -9 -1 -20 -13 -43 -46 -90 -15 -90 61 0 36 5 49
22 61 30 21 43 20 68 -6 11 -12 20 -17 20 -10 0 14 -40 42 -60 42 -9 0 -26 -7
-38 -16z"/>
<path d="M4868 194 c-5 -4 -8 -45 -8 -91 l0 -83 63 2 62 2 -52 3 -52 4 -3 85
c-2 47 -6 82 -10 78z"/>
<path d="M5046 187 c-15 -31 -2 -138 19 -153 25 -18 55 -18 83 2 20 14 22 23
20 92 l-1 77 -6 -78 c-6 -78 -16 -96 -52 -97 -36 0 -48 23 -51 100 -2 51 -6
69 -12 57z"/>
<path d="M5260 110 l0 -90 45 0 c32 0 51 6 65 20 24 24 24 29 5 57 -10 14 -12
24 -5 28 5 3 10 17 10 31 0 28 -31 44 -86 44 l-34 0 0 -90z m94 67 c13 -10 16
-20 12 -35 -6 -18 -15 -22 -52 -22 -42 0 -44 1 -44 28 0 16 3 32 7 35 11 12
58 8 77 -6z m-10 -77 c53 -20 19 -75 -42 -68 -19 2 -28 9 -30 26 -7 50 16 64
72 42z"/>
</g>
</svg>
