<?xml version="1.0" standalone="no"?>
<!DOCTYPE svg PUBLIC "-//W3C//DTD SVG 20010904//EN"
 "http://www.w3.org/TR/2001/REC-SVG-20010904/DTD/svg10.dtd">
<svg version="1.0" xmlns="http://www.w3.org/2000/svg"
 width="1280.000000pt" height="1139.000000pt" viewBox="0 0 1280.000000 1139.000000"
 preserveAspectRatio="xMidYMid meet">
<metadata>
Created by potrace 1.15, written by Peter Selinger 2001-2017
</metadata>
<g transform="translate(0.000000,1139.000000) scale(0.100000,-0.100000)"
fill="#000000" stroke="none">
<path d="M11751 10700 c-38 -6 -63 -23 -73 -51 -2 -4 -110 -18 -241 -31 l-239
-24 -18 23 c-13 17 -28 23 -56 23 -76 0 -84 -6 -84 -64 0 -29 4 -56 9 -61 6
-6 11 -32 13 -60 l3 -50 98 0 c71 0 97 -3 97 -12 0 -7 -4 -13 -8 -13 -4 0
-129 -13 -277 -30 -149 -16 -355 -39 -460 -51 -104 -11 -269 -29 -365 -39 -96
-10 -263 -28 -370 -40 -107 -11 -251 -27 -320 -35 -126 -14 -344 -38 -700 -75
-107 -12 -276 -30 -375 -40 -99 -11 -225 -25 -280 -30 -55 -6 -138 -15 -185
-20 -47 -5 -175 -19 -285 -30 -110 -12 -252 -28 -315 -36 -116 -14 -397 -46
-565 -64 -49 -5 -173 -19 -275 -30 -174 -19 -515 -53 -1010 -100 -385 -37
-594 -60 -651 -70 -30 -5 -73 -10 -94 -10 -22 0 -121 -9 -220 -20 -99 -10
-268 -28 -375 -40 -107 -11 -233 -24 -280 -30 -47 -5 -130 -14 -185 -20 -55
-5 -183 -19 -285 -30 -102 -11 -232 -25 -290 -31 -58 -6 -134 -15 -170 -20
-61 -8 -66 -8 -80 13 -39 58 -54 67 -125 77 -38 5 -218 33 -400 61 -181 28
-357 56 -390 61 -33 5 -114 18 -181 28 -100 16 -135 18 -205 9 -46 -5 -85 -11
-87 -13 -1 -1 11 -42 27 -91 16 -49 48 -149 71 -223 45 -142 67 -176 106 -168
13 2 24 1 24 -4 0 -4 -19 -35 -42 -70 l-43 -62 -125 8 c-69 4 -136 8 -150 9
-14 1 -31 5 -38 10 -7 4 -19 3 -26 -3 -7 -6 -16 -8 -19 -4 -16 15 -97 -45 -97
-71 0 -8 -5 -18 -11 -21 -6 -4 -8 -14 -5 -22 4 -9 2 -21 -3 -27 -5 -6 -6 -43
-1 -91 5 -44 13 -126 19 -183 6 -58 18 -117 28 -135 9 -18 16 -35 15 -38 -3
-14 39 -41 63 -42 17 0 47 -20 92 -61 108 -99 167 -205 200 -361 12 -59 13
-94 2 -230 -10 -140 -15 -165 -37 -203 -53 -93 -185 -210 -252 -225 -14 -3
-56 -17 -94 -32 -156 -59 -328 -75 -579 -55 -210 16 -211 16 -205 -82 4 -66 6
-73 38 -100 49 -41 221 -123 310 -148 88 -24 288 -27 496 -9 152 14 257 2 373
-40 367 -134 548 -539 419 -935 -21 -65 -148 -346 -229 -508 -27 -54 -49 -102
-49 -108 0 -5 -16 -43 -35 -84 -19 -41 -35 -82 -35 -90 0 -8 -4 -17 -9 -20 -4
-3 -16 -27 -25 -53 -20 -55 -35 -91 -47 -115 -5 -10 -9 -25 -9 -33 0 -9 -7
-27 -16 -40 -9 -14 -13 -25 -9 -25 4 0 3 -6 -2 -12 -14 -17 -38 -90 -35 -105
1 -6 -2 -14 -8 -18 -5 -3 -10 -17 -10 -30 0 -13 -4 -27 -10 -30 -5 -3 -10 -17
-10 -30 0 -13 -4 -27 -10 -30 -5 -3 -10 -17 -10 -30 0 -13 -4 -26 -9 -29 -4
-3 -12 -25 -16 -48 -5 -24 -9 -45 -10 -48 -1 -3 -4 -12 -8 -20 -7 -17 -48
-184 -53 -215 -2 -11 -12 -60 -23 -110 -56 -259 -64 -296 -76 -370 -2 -11 -4
-20 -5 -20 -1 0 -10 -40 -20 -90 -31 -155 -50 -248 -67 -320 -9 -38 -18 -83
-19 -100 -1 -16 -5 -41 -8 -55 -9 -40 -36 -173 -41 -200 -2 -14 -6 -39 -9 -56
-3 -17 -12 -51 -20 -75 -31 -90 -47 -248 -44 -417 l2 -164 -51 -24 c-59 -28
-62 -35 -97 -184 -14 -58 -34 -145 -46 -195 -46 -198 -92 -384 -112 -450 -22
-74 -22 -62 12 -320 9 -68 12 -87 25 -205 4 -30 8 -66 10 -80 2 -14 6 -48 10
-77 7 -56 25 -76 81 -89 16 -4 34 -10 39 -14 6 -5 46 -16 90 -25 92 -19 280
-15 480 10 66 8 149 18 185 20 36 3 88 12 115 20 28 8 102 19 165 25 63 7 129
16 145 20 46 14 110 18 160 10 25 -4 48 -3 51 1 9 15 386 77 434 72 8 -1 107
9 220 23 113 15 223 28 244 30 22 2 48 7 60 10 11 4 48 6 82 5 34 -1 75 4 91
10 25 10 66 15 266 36 31 3 57 9 57 14 0 5 7 9 15 9 8 0 15 4 15 9 0 5 20 9
44 9 25 0 71 6 103 12 67 13 227 48 263 57 29 7 42 10 90 17 47 7 153 51 218
90 45 26 52 35 49 56 -26 155 -67 490 -67 543 0 27 -7 45 -24 62 -14 14 -51
56 -84 95 -47 56 -61 81 -72 127 -16 75 -24 90 -61 109 -27 14 -30 20 -25 46
3 16 -1 75 -10 131 -13 89 -17 199 -26 677 0 19 7 73 17 120 17 87 19 95 30
165 13 81 36 201 45 235 6 19 20 82 31 140 12 58 26 124 30 148 5 23 13 61 17
85 5 23 11 47 14 52 3 6 9 34 12 63 3 30 8 57 11 61 2 4 7 23 10 42 8 45 42
213 55 269 6 25 12 56 15 69 7 37 35 158 56 238 11 40 19 80 19 88 0 8 9 34
20 58 10 23 39 121 64 218 24 97 52 193 60 214 9 20 16 43 16 50 0 7 8 30 17
51 9 22 16 42 15 46 -3 13 82 79 135 105 51 24 53 27 40 47 -42 64 -41 63 -25
89 23 33 161 103 244 123 132 31 289 10 509 -66 116 -40 282 -78 415 -95 160
-21 450 -16 595 9 384 67 792 226 1202 469 131 78 189 128 178 154 -4 10 -8
51 -11 91 -2 40 -7 78 -11 84 -3 7 -6 29 -4 49 1 21 -3 40 -8 43 -5 3 -7 23
-4 45 3 22 1 41 -5 45 -6 3 -8 21 -5 40 3 19 1 36 -6 40 -6 4 -8 20 -4 36 3
17 0 36 -6 44 -8 9 -10 28 -6 48 5 25 2 38 -9 47 -13 11 -14 17 -4 28 9 11 9
22 -1 49 -7 19 -9 43 -6 55 4 13 1 27 -10 39 -16 18 -16 21 -1 44 9 14 24 30
35 35 14 8 23 34 35 103 41 222 166 405 339 495 120 63 174 74 607 123 146 17
302 35 348 40 83 10 182 22 335 40 45 5 123 14 172 20 131 16 237 28 345 40
139 16 213 29 222 38 4 4 9 39 10 77 l3 70 39 0 c38 0 40 -2 55 -47 9 -26 22
-53 29 -60 10 -10 63 -13 212 -13 239 0 233 -3 238 109 4 66 7 75 26 80 11 3
24 6 28 6 3 0 14 -24 23 -52 10 -29 21 -57 26 -62 4 -5 54 -14 111 -20 84 -10
125 -9 222 4 136 17 136 17 140 125 2 53 4 60 23 63 17 3 24 -6 38 -50 10 -29
20 -56 24 -60 3 -3 56 -11 118 -18 94 -10 132 -9 240 5 70 9 136 18 147 21 11
4 32 37 53 81 l34 75 -12 128 c-11 107 -10 134 1 157 23 49 24 240 1 438 -35
314 -35 314 -17 321 9 3 16 17 16 30 0 13 11 39 24 59 39 58 49 130 43 310 -6
168 -27 276 -66 353 -23 45 -74 92 -100 92 -10 0 -27 18 -41 43 -13 23 -35 58
-50 77 -14 19 -47 80 -74 135 -84 177 -101 209 -111 211 -5 1 -30 -2 -54 -6z
m-10225 -1763 c4 -4 2 -32 -5 -63 -14 -70 -15 -237 -1 -283 5 -19 19 -43 30
-53 19 -18 27 -38 14 -38 -3 0 -31 20 -62 43 -31 24 -78 56 -104 71 -43 25
-50 34 -64 83 -9 31 -17 86 -18 123 -1 76 14 103 68 120 33 10 132 8 142 -3z
m5648 -1317 c205 -52 375 -195 472 -396 58 -121 77 -210 77 -364 0 -158 -19
-245 -82 -377 -106 -220 -280 -366 -596 -498 -303 -127 -618 -184 -950 -172
-204 8 -316 31 -438 91 -161 78 -272 187 -348 341 -55 114 -73 189 -72 320 0
229 91 422 268 571 38 32 86 75 105 94 52 52 95 75 213 115 l108 36 72 -58
c39 -32 96 -76 125 -98 48 -36 52 -42 52 -81 0 -23 5 -44 10 -46 10 -3 13 -14
26 -88 14 -79 45 -184 59 -200 8 -9 15 -22 15 -28 0 -20 75 -166 118 -229 50
-74 181 -198 255 -242 31 -18 96 -47 144 -63 78 -27 97 -30 168 -25 44 3 88 8
97 12 26 10 31 42 12 74 -15 25 -35 35 -128 66 -197 63 -327 170 -410 335 -87
174 -99 346 -36 545 27 87 30 105 20 138 -9 31 -15 37 -38 38 -23 0 -18 4 26
24 30 14 84 45 121 69 163 109 353 143 535 96z"/>
<path d="M640 8440 c0 -5 5 -10 11 -10 5 0 7 5 4 10 -3 6 -8 10 -11 10 -2 0
-4 -4 -4 -10z"/>
<path d="M370 7000 c0 -5 5 -10 10 -10 6 0 10 5 10 10 0 6 -4 10 -10 10 -5 0
-10 -4 -10 -10z"/>
<path d="M0 6468 c0 -20 1 -21 20 -3 11 10 20 20 20 22 0 1 -9 3 -20 3 -14 0
-20 -7 -20 -22z"/>
<path d="M4565 1163 c11 -11 25 -27 30 -37 11 -19 28 -23 33 -8 1 5 -17 21
-40 36 -24 15 -34 19 -23 9z"/>
<path d="M2100 719 c0 -5 5 -7 10 -4 6 3 10 8 10 11 0 2 -4 4 -10 4 -5 0 -10
-5 -10 -11z"/>
</g>
</svg>
